<?xml version="1.0" encoding="UTF-8"?>
<svg width="84px" height="51px" viewBox="0 0 84 51" version="1.1" xmlns="http://www.w3.org/2000/svg" xmlns:xlink="http://www.w3.org/1999/xlink">
    <!-- Generator: Sketch 48.2 (47327) - http://www.bohemiancoding.com/sketch -->
    <title>Path</title>
    <desc>Created with Sketch.</desc>
    <defs></defs>
    <g id="Desktop-HD-Copy-4" stroke="none" stroke-width="1" fill="none" fill-rule="evenodd" transform="translate(-1294.000000, -428.000000)">
        <path d="M1311.03545,472.046379 L1333.15492,494.165848 C1333.82501,494.832735 1334.71312,495.118085 1335.58521,495.069992 C1336.45729,495.118085 1337.3454,494.832735 1338.01549,494.165848 L1360.13496,472.046379 C1361.38858,470.792761 1361.38858,468.76004 1360.13496,467.509628 C1358.88455,466.259216 1356.85183,466.259216 1355.59821,467.509628 L1338.79139,484.319655 L1338.79139,415.110949 C1338.79139,413.337929 1337.35823,411.904765 1335.58521,411.904765 C1333.81539,411.904765 1332.37902,413.337929 1332.37902,415.110949 L1332.37902,484.319655 L1315.56899,467.509628 C1314.31858,466.259216 1312.28586,466.259216 1311.03545,467.509628 C1309.78183,468.76004 1309.78183,470.792761 1311.03545,472.046379 L1311.03545,472.046379 Z" id="Path" fill="#000000" transform="translate(1335.585206, 453.489971) rotate(-90.000000) translate(-1335.585206, -453.489971) "></path>
    </g>
</svg>