<?xml version="1.0" encoding="UTF-8"?>
<svg width="84px" height="51px" viewBox="0 0 84 51" version="1.1" xmlns="http://www.w3.org/2000/svg" xmlns:xlink="http://www.w3.org/1999/xlink">
    <!-- Generator: Sketch 48.2 (47327) - http://www.bohemiancoding.com/sketch -->
    <title>Path Copy</title>
    <desc>Created with Sketch.</desc>
    <defs></defs>
    <g id="Desktop-HD-Copy-4" stroke="none" stroke-width="1" fill="none" fill-rule="evenodd" transform="translate(-41.000000, -428.000000)">
        <path d="M58.035449,472.046379 L80.154918,494.165848 C80.8250106,494.832735 81.7131238,495.118085 82.5852061,495.069992 C83.4572883,495.118085 84.3454015,494.832735 85.0154941,494.165848 L107.134963,472.046379 C108.388581,470.792761 108.388581,468.76004 107.134963,467.509628 C105.884551,466.259216 103.85183,466.259216 102.598212,467.509628 L85.7913909,484.319655 L85.7913909,415.110949 C85.7913909,413.337929 84.3582262,411.904765 82.5852061,411.904765 C80.815392,411.904765 79.3790212,413.337929 79.3790212,415.110949 L79.3790212,484.319655 L62.5689943,467.509628 C61.3185822,466.259216 59.2858611,466.259216 58.035449,467.509628 C56.7818307,468.76004 56.7818307,470.792761 58.035449,472.046379 L58.035449,472.046379 Z" id="Path-Copy" fill="#000000" transform="translate(82.585206, 453.489971) rotate(-270.000000) translate(-82.585206, -453.489971) "></path>
    </g>
</svg>